name rise31.4854peak64.571fall78.6902.mot
datacolumns 19
datarows 23
range 11.39829100000000 11.43495500000000
endheader
time	ground_force1_vx	ground_force1_vy	ground_force1_vz	ground_force1_px	ground_force1_py	ground_force1_pz	ground_force2_vx	ground_force2_vy	ground_force2_vz	ground_force2_px	ground_force2_py	ground_force2_pz	ground_torque1_x	ground_torque1_y	ground_torque1_z	ground_torque2_x	ground_torque2_y	ground_torque2_z	
11.39829100000000	-38.62098000000000	804.72643600000004	57.41061600000000	0.12697500000000	0.00000000000000	0.11025700000000	-10.16934800000000	37.67024000000000	11.27510100000000	0.35293300000000	0.00000000000000	-0.07311600000000	0.00000000000000	22.35917300000000	0.00000000000000	0.00000000000000	6.95148900000000	0.00000000000000	
11.39995700000000	-38.73999200000000	802.02593899999999	57.11371300000000	0.12647900000000	0.00000000000000	0.11016800000000	-11.25418700000000	43.68284200000000	12.71353100000000	0.35771600000000	0.00000000000000	-0.07384300000000	0.00000000000000	22.21352100000000	0.00000000000000	0.00000000000000	7.93719200000000	0.00000000000000	
11.40162300000000	-38.87700900000000	799.24368300000003	56.79501300000000	0.12599300000000	0.00000000000000	0.11007400000000	-12.17696100000000	49.65308000000000	14.03498700000000	0.36215000000000	0.00000000000000	-0.07453400000000	0.00000000000000	22.06917800000000	0.00000000000000	0.00000000000000	8.86982400000000	0.00000000000000	
11.40329600000000	-39.03314400000000	796.38090199999999	56.45476400000000	0.12551700000000	0.00000000000000	0.10997600000000	-12.91142300000000	55.49660700000000	15.21048300000000	0.36626600000000	0.00000000000000	-0.07519400000000	0.00000000000000	21.92644700000000	0.00000000000000	0.00000000000000	9.72907400000000	0.00000000000000	
11.40496200000000	-39.20946100000000	793.43873299999996	56.09324500000000	0.12504900000000	0.00000000000000	0.10987300000000	-13.44189300000000	61.15350800000000	16.22086600000000	0.37009000000000	0.00000000000000	-0.07582800000000	0.00000000000000	21.78562100000000	0.00000000000000	0.00000000000000	10.50035400000000	0.00000000000000	
11.40662300000000	-39.40697300000000	790.41820399999995	55.71076900000000	0.12459000000000	0.00000000000000	0.10976600000000	-13.76314500000000	66.58973200000000	17.05695600000000	0.37364500000000	0.00000000000000	-0.07643800000000	0.00000000000000	21.64698000000000	0.00000000000000	0.00000000000000	11.17512700000000	0.00000000000000	
11.40828800000000	-39.62663200000000	787.32022500000005	55.30767500000000	0.12413900000000	0.00000000000000	0.10965400000000	-13.87945600000000	71.79616200000000	17.71884000000000	0.37695300000000	0.00000000000000	-0.07702900000000	0.00000000000000	21.51078800000000	0.00000000000000	0.00000000000000	11.75066700000000	0.00000000000000	
11.40996100000000	-39.86932700000000	784.14557600000001	54.88432800000000	0.12369400000000	0.00000000000000	0.10953900000000	-13.80303400000000	76.78579400000000	18.21452700000000	0.38002900000000	0.00000000000000	-0.07760300000000	0.00000000000000	21.37729300000000	0.00000000000000	0.00000000000000	12.22939300000000	0.00000000000000	
11.41162500000000	-40.13587600000000	780.89490699999999	54.44111900000000	0.12325600000000	0.00000000000000	0.10941900000000	-13.55205600000000	81.58956400000000	18.55818200000000	0.38289000000000	0.00000000000000	-0.07816200000000	0.00000000000000	21.24672700000000	0.00000000000000	0.00000000000000	12.61787600000000	0.00000000000000	
11.41329100000000	-40.42701700000000	777.56872199999998	53.97846200000000	0.12282300000000	0.00000000000000	0.10929400000000	-13.14855600000000	86.25142900000000	18.76816100000000	0.38554900000000	0.00000000000000	-0.07870700000000	0.00000000000000	21.11930200000000	0.00000000000000	0.00000000000000	12.92568300000000	0.00000000000000	
11.41495400000000	-40.74340700000000	774.16737999999998	53.49678900000000	0.12239400000000	0.00000000000000	0.10916600000000	-12.61635800000000	90.82322100000000	18.86503300000000	0.38801900000000	0.00000000000000	-0.07924100000000	0.00000000000000	20.99521400000000	0.00000000000000	0.00000000000000	13.16416500000000	0.00000000000000	
11.41662900000000	-41.08561200000000	770.69108600000004	52.99655200000000	0.12196900000000	0.00000000000000	0.10903300000000	-11.97921400000000	95.35973500000000	18.86977400000000	0.39031000000000	0.00000000000000	-0.07976400000000	0.00000000000000	20.87463600000000	0.00000000000000	0.00000000000000	13.34531100000000	0.00000000000000	
11.41829300000000	-41.45410300000000	767.13988600000005	52.47821800000000	0.12154600000000	0.00000000000000	0.10889700000000	-11.25925300000000	99.91440900000001	18.80222400000000	0.39243400000000	0.00000000000000	-0.08027900000000	0.00000000000000	20.75772000000000	0.00000000000000	0.00000000000000	13.48074200000000	0.00000000000000	
11.41996300000000	-41.84925000000000	763.51366900000005	51.94227000000000	0.12112500000000	0.00000000000000	0.10875600000000	-10.47582900000000	104.53581900000000	18.67989700000000	0.39439800000000	0.00000000000000	-0.08078500000000	0.00000000000000	20.64459800000000	0.00000000000000	0.00000000000000	13.58091200000000	0.00000000000000	
11.42162900000000	-42.27131800000000	759.81215899999995	51.38919900000000	0.12070400000000	0.00000000000000	0.10861200000000	-9.64476300000000	109.26513700000000	18.51717300000000	0.39621100000000	0.00000000000000	-0.08128400000000	0.00000000000000	20.53537700000000	0.00000000000000	0.00000000000000	13.65453500000000	0.00000000000000	
11.42329500000000	-42.72045800000000	756.03491499999996	50.81950900000000	0.12028300000000	0.00000000000000	0.10846400000000	-8.77798700000000	114.13455200000000	18.32486400000000	0.39788200000000	0.00000000000000	-0.08177500000000	0.00000000000000	20.43014100000000	0.00000000000000	0.00000000000000	13.70825100000000	0.00000000000000	
11.42495800000000	-43.19670700000000	752.18133499999999	50.23371200000000	0.11986000000000	0.00000000000000	0.10831300000000	-7.88353200000000	119.16662100000001	18.11011800000000	0.39941600000000	0.00000000000000	-0.08226100000000	0.00000000000000	20.32895200000000	0.00000000000000	0.00000000000000	13.74650200000000	0.00000000000000	
11.42662300000000	-43.69997800000000	748.25065099999995	49.63232600000000	0.11943500000000	0.00000000000000	0.10815800000000	-6.96581000000000	124.37441600000000	17.87661700000000	0.40082200000000	0.00000000000000	-0.08274100000000	0.00000000000000	20.23184600000000	0.00000000000000	0.00000000000000	13.77161300000000	0.00000000000000	
11.42829500000000	-44.23006400000000	744.24193400000001	49.01587300000000	0.11900600000000	0.00000000000000	0.10799900000000	-6.02610300000000	129.76231899999999	17.62498900000000	0.40210500000000	0.00000000000000	-0.08321500000000	0.00000000000000	20.13883400000000	0.00000000000000	0.00000000000000	13.78400600000000	0.00000000000000	
11.42995600000000	-44.78662400000000	740.15409799999998	48.38488000000000	0.11857300000000	0.00000000000000	0.10783800000000	-5.06319600000000	135.32728299999999	17.35337000000000	0.40327000000000	0.00000000000000	-0.08368400000000	0.00000000000000	20.04990200000000	0.00000000000000	0.00000000000000	13.78253200000000	0.00000000000000	
11.43162600000000	-45.36919000000000	735.98590000000002	47.73987400000000	0.11813400000000	0.00000000000000	0.10767300000000	-4.07407600000000	141.06037400000000	17.05805200000000	0.40432500000000	0.00000000000000	-0.08414800000000	0.00000000000000	19.96501000000000	0.00000000000000	0.00000000000000	13.76485700000000	0.00000000000000	
11.43329100000000	-45.97715400000000	731.73594900000001	47.08138500000000	0.11768800000000	0.00000000000000	0.10750600000000	-3.05462500000000	146.94843499999999	16.73414100000000	0.40527400000000	0.00000000000000	-0.08460700000000	0.00000000000000	19.88409200000000	0.00000000000000	0.00000000000000	13.72786900000000	0.00000000000000	
11.43495500000000	-46.60977600000000	727.40270699999996	46.40994000000000	0.11723500000000	0.00000000000000	0.10733600000000	-2.00027300000000	152.97571900000000	16.37618200000000	0.40612100000000	0.00000000000000	-0.08506100000000	0.00000000000000	19.80705900000000	0.00000000000000	0.00000000000000	13.66807600000000	0.00000000000000	
